<svg viewBox="0 0 100 100" xmlns="http://www.w3.org/2000/svg">
<path d="M22,87 l0,10 l-10,0 l0,-10 z" fill="none" stroke="purple" stroke-width="0.25"/>
<path d="M-18,-71 l0,-8 l8,0 l0,8 z" fill="none" stroke="blue" stroke-width="0.25"/>
<path d="M67,1 l0,23 l-23,0 l0,-23 z" fill="none" stroke="green" stroke-width="0.25"/>
<path d="M-78,82 l0,-24 l24,0 l0,24 z" fill="none" stroke="blue" stroke-width="0.25"/>
<path d="M-55,-36 l0,14 l-14,0 l0,-14 z" fill="none" stroke="green" stroke-width="0.25"/>
<path d="M18,-83 l0,16 l-16,0 l0,-16 z" fill="none" stroke="orange" stroke-width="0.25"/>
<path d="M60,47 l0,-13 l13,0 l0,13 z" fill="none" stroke="purple" stroke-width="0.25"/>
<path d="M2,87 l0,-8 l8,0 l0,8 z" fill="none" stroke="purple" stroke-width="0.25"/>
<path d="M-78,107 l0,-6 l6,0 l0,6 z" fill="none" stroke="yellow" stroke-width="0.25"/>
<path d="M-66,-28 l0,-20 l20,0 l0,20 z" fill="none" stroke="yellow" stroke-width="0.25"/>
<path d="M-25,-51 l0,20 l-20,0 l0,-20 z" fill="none" stroke="purple" stroke-width="0.25"/>
<path d="M92,-60 l0,-19 l19,0 l0,19 z" fill="none" stroke="red" stroke-width="0.25"/>
<path d="M-7,-5 l0,-23 l23,0 l0,23 z" fill="none" stroke="green" stroke-width="0.25"/>
<path d="M40,73 l0,-22 l22,0 l0,22 z" fill="none" stroke="black" stroke-width="0.25"/>
<path d="M-5,-79 l0,9 l-9,0 l0,-9 z" fill="none" stroke="orange" stroke-width="0.25"/>
<path d="M20,-5 l0,8 l-8,0 l0,-8 z" fill="none" stroke="green" stroke-width="0.25"/>
<path d="M107,-4 l0,12 l-12,0 l0,-12 z" fill="none" stroke="red" stroke-width="0.25"/>
<path d="M64,24 l0,-19 l19,0 l0,19 z" fill="none" stroke="black" stroke-width="0.25"/>
<path d="M100,-57 l0,-2 l2,0 l0,2 z" fill="none" stroke="blue" stroke-width="0.25"/>
<path d="M20,33 l0,19 l-19,0 l0,-19 z" fill="none" stroke="orange" stroke-width="0.25"/>
<path d="M45,28 l0,9 l-9,0 l0,-9 z" fill="none" stroke="black" stroke-width="0.25"/>
<path d="M62,80 l0,-18 l18,0 l0,18 z" fill="none" stroke="red" stroke-width="0.25"/>
<path d="M22,48 l0,-20 l20,0 l0,20 z" fill="none" stroke="purple" stroke-width="0.25"/>
<path d="M73,-44 l0,9 l-9,0 l0,-9 z" fill="none" stroke="black" stroke-width="0.25"/>
<path d="M-51,72 l0,17 l-17,0 l0,-17 z" fill="none" stroke="black" stroke-width="0.25"/>
<path d="M17,84 l0,14 l-14,0 l0,-14 z" fill="none" stroke="red" stroke-width="0.25"/>
<path d="M53,-41 l0,7 l-7,0 l0,-7 z" fill="none" stroke="green" stroke-width="0.25"/>
<path d="M-61,19 l0,5 l-5,0 l0,-5 z" fill="none" stroke="orange" stroke-width="0.25"/>
<path d="M58,91 l0,10 l-10,0 l0,-10 z" fill="none" stroke="purple" stroke-width="0.25"/>
<path d="M-80,-85 l0,0 l0,0 l0,0 z" fill="none" stroke="red" stroke-width="0.25"/>
<path d="M10,0 l0,-20 l20,0 l0,20 z" fill="none" stroke="orange" stroke-width="0.25"/>
<path d="M-35,104 l0,3 l-3,0 l0,-3 z" fill="none" stroke="black" stroke-width="0.25"/>
<path d="M2,-51 l0,22 l-22,0 l0,-22 z" fill="none" stroke="yellow" stroke-width="0.25"/>
<path d="M-58,43 l0,-20 l20,0 l0,20 z" fill="none" stroke="orange" stroke-width="0.25"/>
<path d="M56,-35 l0,-12 l12,0 l0,12 z" fill="none" stroke="blue" stroke-width="0.25"/>
<path d="M107,-60 l0,-4 l4,0 l0,4 z" fill="none" stroke="yellow" stroke-width="0.25"/>
<path d="M-31,-57 l0,-17 l17,0 l0,17 z" fill="none" stroke="green" stroke-width="0.25"/>
<path d="M77,57 l0,19 l-19,0 l0,-19 z" fill="none" stroke="red" stroke-width="0.25"/>
<path d="M-78,87 l0,-6 l6,0 l0,6 z" fill="none" stroke="purple" stroke-width="0.25"/>
<path d="M98,0 l0,16 l-16,0 l0,-16 z" fill="none" stroke="black" stroke-width="0.25"/>
<path d="M-28,-21 l0,7 l-7,0 l0,-7 z" fill="none" stroke="purple" stroke-width="0.25"/>
<path d="M-26,-66 l0,-20 l20,0 l0,20 z" fill="none" stroke="purple" stroke-width="0.25"/>
<path d="M42,-10 l0,10 l-10,0 l0,-10 z" fill="none" stroke="green" stroke-width="0.25"/>
<path d="M85,105 l0,-23 l23,0 l0,23 z" fill="none" stroke="red" stroke-width="0.25"/>
<path d="M21,3 l0,10 l-10,0 l0,-10 z" fill="none" stroke="orange" stroke-width="0.25"/>
<path d="M54,-62 l0,-4 l4,0 l0,4 z" fill="none" stroke="purple" stroke-width="0.25"/>
<path d="M20,-19 l0,-14 l14,0 l0,14 z" fill="none" stroke="blue" stroke-width="0.25"/>
<path d="M-61,-16 l0,-12 l12,0 l0,12 z" fill="none" stroke="red" stroke-width="0.25"/>
<path d="M82,70 l0,4 l-4,0 l0,-4 z" fill="none" stroke="purple" stroke-width="0.25"/>
<path d="M44,93 l0,-13 l13,0 l0,13 z" fill="none" stroke="orange" stroke-width="0.25"/>
<path d="M99,-37 l0,10 l-10,0 l0,-10 z" fill="none" stroke="purple" stroke-width="0.25"/>
<path d="M48,28 l0,11 l-11,0 l0,-11 z" fill="none" stroke="purple" stroke-width="0.25"/>
<path d="M-3,-35 l0,-20 l20,0 l0,20 z" fill="none" stroke="red" stroke-width="0.25"/>
<path d="M88,60 l0,9 l-9,0 l0,-9 z" fill="none" stroke="yellow" stroke-width="0.25"/>
<path d="M23,82 l0,6 l-6,0 l0,-6 z" fill="none" stroke="black" stroke-width="0.25"/>
<path d="M-18,11 l0,-24 l24,0 l0,24 z" fill="none" stroke="orange" stroke-width="0.25"/>
<path d="M43,93 l0,8 l-8,0 l0,-8 z" fill="none" stroke="green" stroke-width="0.25"/>
<path d="M29,-35 l0,13 l-13,0 l0,-13 z" fill="none" stroke="purple" stroke-width="0.25"/>
<path d="M-14,11 l0,8 l-8,0 l0,-8 z" fill="none" stroke="green" stroke-width="0.25"/>
<path d="M41,-31 l0,-8 l8,0 l0,8 z" fill="none" stroke="blue" stroke-width="0.25"/>
<path d="M-46,-42 l0,3 l-3,0 l0,-3 z" fill="none" stroke="purple" stroke-width="0.25"/>
<path d="M-86,105 l0,-11 l11,0 l0,11 z" fill="none" stroke="yellow" stroke-width="0.25"/>
<path d="M-40,97 l0,20 l-20,0 l0,-20 z" fill="none" stroke="orange" stroke-width="0.25"/>
<path d="M-65,78 l0,-8 l8,0 l0,8 z" fill="none" stroke="red" stroke-width="0.25"/>
<path d="M-79,-89 l0,-7 l7,0 l0,7 z" fill="none" stroke="purple" stroke-width="0.25"/>
<path d="M95,49 l0,-19 l19,0 l0,19 z" fill="none" stroke="orange" stroke-width="0.25"/>
<path d="M15,13 l0,-8 l8,0 l0,8 z" fill="none" stroke="orange" stroke-width="0.25"/>
<path d="M-27,-76 l0,15 l-15,0 l0,-15 z" fill="none" stroke="purple" stroke-width="0.25"/>
<path d="M-53,46 l0,2 l-2,0 l0,-2 z" fill="none" stroke="blue" stroke-width="0.25"/>
<path d="M-34,68 l0,4 l-4,0 l0,-4 z" fill="none" stroke="yellow" stroke-width="0.25"/>
<path d="M45,50 l0,20 l-20,0 l0,-20 z" fill="none" stroke="purple" stroke-width="0.25"/>
<path d="M74,54 l0,-12 l12,0 l0,12 z" fill="none" stroke="yellow" stroke-width="0.25"/>
<path d="M-89,-16 l0,16 l-16,0 l0,-16 z" fill="none" stroke="black" stroke-width="0.25"/>
<path d="M50,40 l0,23 l-23,0 l0,-23 z" fill="none" stroke="red" stroke-width="0.25"/>
<path d="M54,-59 l0,0 l0,0 l0,0 z" fill="none" stroke="orange" stroke-width="0.25"/>
<path d="M-17,-23 l0,-2 l2,0 l0,2 z" fill="none" stroke="black" stroke-width="0.25"/>
<path d="M59,96 l0,-10 l10,0 l0,10 z" fill="none" stroke="orange" stroke-width="0.25"/>
<path d="M-44,-21 l0,14 l-14,0 l0,-14 z" fill="none" stroke="red" stroke-width="0.25"/>
<path d="M-87,-13 l0,-9 l9,0 l0,9 z" fill="none" stroke="green" stroke-width="0.25"/>
<path d="M10,83 l0,19 l-19,0 l0,-19 z" fill="none" stroke="orange" stroke-width="0.25"/>
<path d="M-56,91 l0,-12 l12,0 l0,12 z" fill="none" stroke="red" stroke-width="0.25"/>
<path d="M93,50 l0,8 l-8,0 l0,-8 z" fill="none" stroke="yellow" stroke-width="0.25"/>
<path d="M-41,44 l0,-14 l14,0 l0,14 z" fill="none" stroke="yellow" stroke-width="0.25"/>
<path d="M53,80 l0,-4 l4,0 l0,4 z" fill="none" stroke="blue" stroke-width="0.25"/>
<path d="M22,101 l0,-9 l9,0 l0,9 z" fill="none" stroke="blue" stroke-width="0.25"/>
<path d="M19,51 l0,17 l-17,0 l0,-17 z" fill="none" stroke="black" stroke-width="0.25"/>
<path d="M45,12 l0,12 l-12,0 l0,-12 z" fill="none" stroke="orange" stroke-width="0.25"/>
<path d="M93,-75 l0,-4 l4,0 l0,4 z" fill="none" stroke="yellow" stroke-width="0.25"/>
<path d="M106,-49 l0,-22 l22,0 l0,22 z" fill="none" stroke="black" stroke-width="0.25"/>
<path d="M99,-11 l0,17 l-17,0 l0,-17 z" fill="none" stroke="red" stroke-width="0.25"/>
<path d="M42,62 l0,3 l-3,0 l0,-3 z" fill="none" stroke="yellow" stroke-width="0.25"/>
<path d="M-76,73 l0,2 l-2,0 l0,-2 z" fill="none" stroke="blue" stroke-width="0.25"/>
<path d="M-76,10 l0,8 l-8,0 l0,-8 z" fill="none" stroke="yellow" stroke-width="0.25"/>
<path d="M-43,-76 l0,-8 l8,0 l0,8 z" fill="none" stroke="orange" stroke-width="0.25"/>
<path d="M-1,63 l0,5 l-5,0 l0,-5 z" fill="none" stroke="yellow" stroke-width="0.25"/>
<path d="M-32,79 l0,21 l-21,0 l0,-21 z" fill="none" stroke="yellow" stroke-width="0.25"/>
<path d="M-56,-67 l0,17 l-17,0 l0,-17 z" fill="none" stroke="green" stroke-width="0.25"/>
<path d="M-25,-4 l0,-11 l11,0 l0,11 z" fill="none" stroke="yellow" stroke-width="0.25"/>
<path d="M-29,100 l0,9 l-9,0 l0,-9 z" fill="none" stroke="black" stroke-width="0.25"/>
<path d="M-73,-45 l0,-22 l22,0 l0,22 z" fill="none" stroke="black" stroke-width="0.25"/>
</svg>